<svg id="Capa_1" enable-background="new 0 0 512 512" height="512" viewBox="0 0 512 512" width="512" xmlns="http://www.w3.org/2000/svg"><g><path d="m230.342 91c-41.355 0-75 33.645-75 75 0 8.284 6.716 15 15 15s15-6.716 15-15c0-24.813 20.187-45 45-45s45 20.187 45 45-20.187 45-45 45c-8.284 0-15 6.716-15 15v60c0 8.284 6.716 15 15 15s15-6.716 15-15v-46.507c34.19-6.969 60-37.274 60-73.493 0-41.355-33.645-75-75-75z"/><circle cx="230.342" cy="346" r="15"/><path d="m489.599 324.201-50.925-87.291c15.604-127.464-83.393-236.91-208.861-236.91-116.054 0-210.471 94.417-210.471 210.47 0 56.46 22.331 109.405 61.342 148.523l-.02 137.005c-.001 8.252 6.664 14.956 14.916 15.002 43.602.243 179.563 1 179.712 1 8.269 0 15-6.705 15-15v-30.14h75.47c24.35 0 44.16-19.796 44.16-44.13v-65.01h60.431c17.093 0 27.921-18.586 19.246-33.519zm-94.677 3.519c-8.284 0-15 6.716-15 15v80.01c0 7.791-6.353 14.13-14.16 14.13h-90.47c-8.284 0-15 6.716-15 15v30.057l-149.626-.833.019-128.421c.001-4.13-1.702-8.078-4.707-10.913-36.521-34.456-56.636-81.079-56.636-131.28 0-99.512 80.959-180.47 180.471-180.47 106.46 0 195.185 93.692 178.468 207.847-.492 3.364.172 6.795 1.886 9.732l46.754 80.142h-61.999z"/></g></svg>