<?xml version="1.0" encoding="iso-8859-1"?>
<!-- Generator: Adobe Illustrator 19.0.0, SVG Export Plug-In . SVG Version: 6.00 Build 0)  -->
<svg version="1.1" id="Capa_1" xmlns="http://www.w3.org/2000/svg" xmlns:xlink="http://www.w3.org/1999/xlink" x="0px" y="0px"
	 viewBox="0 0 512 512" style="enable-background:new 0 0 512 512;" xml:space="preserve">
<g>
	<g>
		<path d="M455.68,217.6c-5.12-28.16-15.36-53.76-30.72-74.24l28.16-48.64l-35.84-35.84l-48.64,28.16
			C345.6,71.68,320,61.44,294.4,56.32L281.6,0h-51.2l-12.8,56.32c-28.16,5.12-53.76,15.36-76.8,30.72L92.16,56.32L56.32,92.16
			l28.16,48.64c-15.36,23.04-25.6,48.64-30.72,74.24L0,230.4v51.2l56.32,12.8c5.12,28.16,15.36,53.76,30.72,74.24l-28.16,48.64
			l35.84,35.84l48.64-28.16c23.04,15.36,48.64,25.6,74.24,30.72L230.4,512h51.2l12.8-56.32c28.16-5.12,53.76-15.36,74.24-30.72
			l48.64,28.16l35.84-35.84l-28.16-48.64c15.36-23.04,25.6-48.64,30.72-74.24L512,281.6v-51.2L455.68,217.6z M256,384
			c-71.68,0-128-56.32-128-128s56.32-128,128-128s128,56.32,128,128S327.68,384,256,384z"/>
	</g>
</g>
<g>
</g>
<g>
</g>
<g>
</g>
<g>
</g>
<g>
</g>
<g>
</g>
<g>
</g>
<g>
</g>
<g>
</g>
<g>
</g>
<g>
</g>
<g>
</g>
<g>
</g>
<g>
</g>
<g>
</g>
</svg>
